<svg width="683" height="683" viewBox="0 0 683 683" fill="none" xmlns="http://www.w3.org/2000/svg">
<g filter="url(#filter0_d_232_18)">
<path d="M328.001 57.4665C269.867 64.3998 218.667 88.1332 182.001 124.8C137.734 169.067 115.867 226 120.134 285.333C124.267 340.533 146.801 379.867 184.667 397.467C194.534 402.133 200.001 401.867 203.601 396.533C206.534 391.867 214.667 358.267 213.734 354.4C213.201 352.8 209.867 347.467 206.267 342.667C191.334 322.8 186.134 306.133 186.134 277.333C186.134 248 191.201 226.667 204.134 201.333C226.934 156.8 265.334 128.267 317.734 117.067C337.201 112.933 372.134 112.933 391.734 117.067C420.534 123.333 442.934 134.533 460.401 151.733C492.401 183.067 502.801 226 494.001 289.333C484.001 360.4 450.934 412.133 407.734 424.667C389.601 429.867 367.334 426.4 354.001 416.267C339.867 405.6 332.934 392 333.067 374.933C333.067 363.067 334.134 358.4 346.667 316.667C359.201 275.067 362.667 260.267 363.601 245.2C364.534 230.133 362.801 221.467 356.934 210.267C346.001 189.467 318.934 182.4 294.667 194.267C286.134 198.4 271.334 212.667 266.534 221.333C250.667 250.267 248.401 285.6 260.134 322.933L263.067 332L243.334 415.733C216.667 528.533 216.401 530 214.534 547.733C211.867 573.6 215.067 642.4 219.201 649.2C221.734 653.067 225.601 650.267 234.801 637.867C253.734 612.267 271.601 581.333 281.334 556.667C283.601 550.8 291.201 524.133 298.134 497.333C305.067 470.533 311.067 447.6 311.467 446.267C312.134 444.267 312.801 444.8 315.867 448.933C325.601 462.4 344.534 474.933 364.667 481.333C377.734 485.467 407.601 486.533 424.667 483.467C447.734 479.2 468.667 470.8 488.134 458C502.267 448.667 527.067 423.467 537.201 408C566.534 363.6 581.867 304.8 579.601 245.467C578.401 215.467 574.001 197.467 560.667 170C533.467 113.6 479.067 73.5998 411.201 59.8665C399.467 57.5998 391.067 56.9332 367.334 56.5332C351.201 56.3998 333.467 56.7998 328.001 57.4665Z" fill="#E60023"/>
</g>
<defs>
<filter id="filter0_d_232_18" x="106.609" y="47.5078" width="486.211" height="620.309" filterUnits="userSpaceOnUse" color-interpolation-filters="sRGB">
<feFlood flood-opacity="0" result="BackgroundImageFix"/>
<feColorMatrix in="SourceAlpha" type="matrix" values="0 0 0 0 0 0 0 0 0 0 0 0 0 0 0 0 0 0 127 0" result="hardAlpha"/>
<feOffset dy="4"/>
<feGaussianBlur stdDeviation="6.5"/>
<feComposite in2="hardAlpha" operator="out"/>
<feColorMatrix type="matrix" values="0 0 0 0 0 0 0 0 0 0 0 0 0 0 0 0 0 0 0.1 0"/>
<feBlend mode="normal" in2="BackgroundImageFix" result="effect1_dropShadow_232_18"/>
<feBlend mode="normal" in="SourceGraphic" in2="effect1_dropShadow_232_18" result="shape"/>
</filter>
</defs>
</svg>

